<svg xmlns="http://www.w3.org/2000/svg" width="238.308" height="42.458" viewBox="0 0 238.308 42.458">
    <path data-name="Path 1" d="M53.65 31.96v2.4h-.2a7.172 7.172 0 0 0-.3-1.1 2.336 2.336 0 0 0-.7-.7 1.5 1.5 0 0 0-.9-.2 1.2 1.2 0 0 0-1.3 1.09v.01a1.423 1.423 0 0 0 .2.6 4.119 4.119 0 0 0 1.5 1 7.571 7.571 0 0 1 1.3.8 4.439 4.439 0 0 1 .6.7 2.414 2.414 0 0 1 .2.8 1.994 1.994 0 0 1-.6 1.4 2.114 2.114 0 0 1-1.6.6h-.6c-.1 0-.3-.1-.7-.2l-.6-.2c-.1 0-.2 0-.2.1a.369.369 0 0 0-.1.3h-.2v-2.4h.2a2.293 2.293 0 0 0 .4 1.1 1.328 1.328 0 0 0 .7.6 1.822 1.822 0 0 0 1 .2 1.5 1.5 0 0 0 1-.3 1.092 1.092 0 0 0 .3-1.3 1.765 1.765 0 0 0-.4-.5c-.1-.1-.5-.3-1.1-.7a9.654 9.654 0 0 1-1.3-.8 1.935 1.935 0 0 1-.6-.7 1.856 1.856 0 0 1-.2-.8 1.755 1.755 0 0 1 .6-1.3 1.965 1.965 0 0 1 1.5-.5 2.633 2.633 0 0 1 1.2.3.792.792 0 0 0 .4.1c.1 0 .2 0 .2-.1a.369.369 0 0 0 .1-.3h.2zm9.2.6v2.8h1.6a1.331 1.331 0 0 0 .8-.2 1.032 1.032 0 0 0 .3-.8h.2v2.5h-.2a5.363 5.363 0 0 0-.1-.7l-.3-.3c-.1-.1-.4-.1-.7-.1h-1.5v2.9c0 .1.1.1.1.2s.2.1.4.1h1.2a1.747 1.747 0 0 0 1.4-.4 5.289 5.289 0 0 0 .7-1h.2l-.6 1.8h-5.4v-.2h.2a.869.869 0 0 0 .5-.1c.1-.1.2-.1.2-.2a3.283 3.283 0 0 0 .1-.7v-4.6c0-.4 0-.7-.1-.8a.873.873 0 0 0-.6-.2h-.2v-.2h5.4l.1 1.5h-.2a4.46 4.46 0 0 1-.2-.8 1.314 1.314 0 0 0-.4-.3 1.5 1.5 0 0 0-.9-.2h-2zm17.4 6.6h-1.8l-2.4-3.3h-.7v2c0 .4 0 .7.1.8a.845.845 0 0 0 .6.2h.3v.2h-3v-.2h.3a.609.609 0 0 0 .6-.3c.1-.1.1-.4.1-.8v-4.5c0-.4 0-.7-.1-.8a.845.845 0 0 0-.6-.2h-.3v-.2h2.6a7.521 7.521 0 0 1 1.7.2 1.445 1.445 0 0 1 .9.6 1.806 1.806 0 0 1 .4 1 1.489 1.489 0 0 1-.4 1.1 3.227 3.227 0 0 1-1.3.7l1.5 2a1.962 1.962 0 0 0 .9.9c.2.2.6.2.9.3v.3zm-5-3.6h.3a2.071 2.071 0 0 0 1.5-.4 1.634 1.634 0 0 0 .5-1.1 1.489 1.489 0 0 0-.4-1.1 1.366 1.366 0 0 0-1.1-.4 2.41 2.41 0 0 0-.8.1zm17.6-3.4v.2a1.423 1.423 0 0 0-.6.2 2.9 2.9 0 0 0-.5.8l-2.5 6h-.2l-2.6-6.1a1.694 1.694 0 0 0-.3-.6l-.3-.3a.736.736 0 0 0-.5-.1v-.2h2.9v.2a.873.873 0 0 0-.6.2.522.522 0 0 0-.2.4 4.46 4.46 0 0 0 .2.8l1.8 4.1 1.7-4.1a1.724 1.724 0 0 0 .2-.8c0-.1-.1-.2-.2-.3a.72.72 0 0 0-.5-.2h-.1v-.2zm9.4 6.9v.2h-3v-.2h.2a.609.609 0 0 0 .6-.3c.1-.1.1-.4.1-.8v-4.5c0-.4 0-.6-.1-.7a.215.215 0 0 0-.2-.2.869.869 0 0 0-.5-.1h-.2v-.2h3v.2h-.3a.609.609 0 0 0-.6.3c-.1.1-.1.4-.1.8v4.5c0 .4 0 .6.1.7a.215.215 0 0 0 .2.2.736.736 0 0 0 .5.1zm12.6-7.1.2 2.4h-.2a2.75 2.75 0 0 0-.9-1.5 2.365 2.365 0 0 0-1.4-.5 2.4 2.4 0 0 0-2.2 1.5 5.559 5.559 0 0 0-.3 1.9 4.687 4.687 0 0 0 .3 1.7 2.422 2.422 0 0 0 .9 1.1 3.277 3.277 0 0 0 1.4.4 2.108 2.108 0 0 0 1.2-.3 6.815 6.815 0 0 0 1.2-1.2l.2.1a5.747 5.747 0 0 1-1.2 1.4 3.078 3.078 0 0 1-1.7.4 3 3 0 0 1-2.7-1.3 3.51 3.51 0 0 1-.7-2.3 4.079 4.079 0 0 1 .5-1.9 3.436 3.436 0 0 1 1.3-1.4 4.05 4.05 0 0 1 1.8-.5 2.814 2.814 0 0 1 1.5.4.369.369 0 0 0 .3.1c.1 0 .2 0 .2-.1a.522.522 0 0 0 .2-.4zm8.9.6v2.8h1.5a1.331 1.331 0 0 0 .8-.2 1.032 1.032 0 0 0 .3-.8h.2v2.5h-.2a5.363 5.363 0 0 0-.1-.7l-.3-.3c-.1-.1-.4-.1-.7-.1h-1.5v2.9c0 .1.1.1.1.2s.2.1.4.1h1.2a1.747 1.747 0 0 0 1.4-.4 5.289 5.289 0 0 0 .7-1h.2l-.6 1.8h-5.4v-.2h.2a.869.869 0 0 0 .5-.1c.1-.1.2-.1.2-.2a3.283 3.283 0 0 0 .1-.7v-4.6c0-.4 0-.7-.1-.8a.873.873 0 0 0-.6-.2h-.2v-.2h5.4l.1 1.5h-.2a4.46 4.46 0 0 1-.2-.8 1.314 1.314 0 0 0-.4-.3c-.1-.1-.4-.1-.7-.1h-2.1zm15.1-.6v2.4h-.2a7.172 7.172 0 0 0-.3-1.1 2.336 2.336 0 0 0-.7-.7 1.5 1.5 0 0 0-.9-.2 1.2 1.2 0 0 0-1.3 1.09v.01a1.423 1.423 0 0 0 .2.6 4.119 4.119 0 0 0 1.5 1 7.571 7.571 0 0 1 1.3.8 4.44 4.44 0 0 1 .6.7 2.414 2.414 0 0 1 .2.8 1.994 1.994 0 0 1-.6 1.4 2.114 2.114 0 0 1-1.6.6h-.6c-.1 0-.3-.1-.7-.2l-.6-.2c-.1 0-.2 0-.2.1a.369.369 0 0 0-.1.3h-.2v-2.4h.2a2.293 2.293 0 0 0 .4 1.1 1.328 1.328 0 0 0 .7.6 1.822 1.822 0 0 0 1 .2 1.5 1.5 0 0 0 1-.3 1.092 1.092 0 0 0 .3-1.3 1.765 1.765 0 0 0-.4-.5c-.1-.1-.5-.3-1.1-.7a9.654 9.654 0 0 1-1.3-.8 1.935 1.935 0 0 1-.6-.7 1.856 1.856 0 0 1-.2-.8 1.755 1.755 0 0 1 .6-1.3 1.965 1.965 0 0 1 1.5-.5 2.633 2.633 0 0 1 1.2.3.792.792 0 0 0 .4.1c.1 0 .2 0 .2-.1a.369.369 0 0 0 .1-.3h.2zm17.7 4v2.1c0 .4 0 .7.1.8a.845.845 0 0 0 .6.2h.3v.2h-3v-.2h.3a.609.609 0 0 0 .6-.3c.1-.1.1-.4.1-.8v-4.5c0-.4 0-.7-.1-.8a.845.845 0 0 0-.6-.2h-.3v-.2h2.6a5.829 5.829 0 0 1 1.5.2 1.284 1.284 0 0 1 .9.7 2.161 2.161 0 0 1 .4 1.1 1.826 1.826 0 0 1-.6 1.4 2.076 2.076 0 0 1-1.6.5h-.6c-.1-.2-.3-.2-.6-.2zm0-.3c.2 0 .3.1.5.1h.4a1.014 1.014 0 0 0 .9-.4 1.366 1.366 0 0 0 .4-1.1 1.856 1.856 0 0 0-.2-.8 1 1 0 0 0-.5-.6 1.856 1.856 0 0 0-.8-.2 2.083 2.083 0 0 0-.7.1v2.9zm17.3-3.5v.2a1.423 1.423 0 0 0-.6.2 2.9 2.9 0 0 0-.5.8l-2.5 6h-.2l-2.6-6.1a1.694 1.694 0 0 0-.3-.6l-.3-.3a.736.736 0 0 0-.5-.1v-.2h2.9v.2a.873.873 0 0 0-.6.2.369.369 0 0 0-.1.3 4.46 4.46 0 0 0 .2.8l1.8 4.1 1.7-4.1a1.724 1.724 0 0 0 .2-.8c0-.1-.1-.2-.2-.3a.72.72 0 0 0-.5-.2h-.1v-.2h2.2zm12.2 0 .1 1.7h-.2a.873.873 0 0 0-.2-.6c-.1-.2-.3-.3-.4-.4a1.513 1.513 0 0 0-.7-.1h-1v5.4c0 .4 0 .7.1.8a.873.873 0 0 0 .6.2h.2v.2h-3v-.2h.2a.609.609 0 0 0 .6-.3c.1-.1.1-.4.1-.8v-5.5h-.8c-.3 0-.6 0-.7.1a1.765 1.765 0 0 0-.5.4 1.489 1.489 0 0 0-.2.8h-.2l.1-1.7h5.9zm2 6a.707.707 0 1 1-.4.2.522.522 0 0 1 .4-.2zm22-.9h.2l-.6 1.9h-5.5v-.2h.3a.609.609 0 0 0 .6-.3c.1-.1.1-.4.1-.8v-4.5c0-.4 0-.7-.1-.8a.845.845 0 0 0-.6-.2h-.3v-.2h3.2v.2a1.673 1.673 0 0 0-.8.1q-.3.15-.3.3c-.1.1-.1.4-.1.8v4.4c0 .3 0 .5.1.6l.2.2a5.3 5.3 0 0 0 .8.1h.5a3.144 3.144 0 0 0 1.1-.1 2.17 2.17 0 0 0 .6-.4 10.586 10.586 0 0 0 .6-1.1zm11.5-5.1.1 1.7h-.2a.873.873 0 0 0-.2-.6c-.1-.2-.3-.3-.4-.4a1.513 1.513 0 0 0-.7-.1h-1v5.4c0 .4 0 .7.1.8a.873.873 0 0 0 .6.2h.2v.2h-3v-.2h.2a.609.609 0 0 0 .6-.3c.1-.1.1-.4.1-.8v-5.5h-.8c-.3 0-.6 0-.7.1a1.765 1.765 0 0 0-.5.4 1.489 1.489 0 0 0-.2.8h-.2l.1-1.7h5.9zm6.5 7v-.2h.3a.609.609 0 0 0 .6-.3c.1-.1.1-.4.1-.8v-4.5c0-.4 0-.7-.1-.8a.845.845 0 0 0-.6-.2h-.3v-.2h2.9a4.936 4.936 0 0 1 2.4.4 2.461 2.461 0 0 1 1.3 1.2 4.079 4.079 0 0 1 .5 1.9 3.683 3.683 0 0 1-.9 2.5 4.17 4.17 0 0 1-3.1 1.1h-3.1zm2-.5a4.509 4.509 0 0 0 1.1.1 2.8 2.8 0 0 0 2-.8 3.7 3.7 0 0 0 0-4.6 2.451 2.451 0 0 0-2-.8 5.191 5.191 0 0 0-1.1.2zm7.9-.5a.707.707 0 1 1-.4.2.522.522 0 0 1 .4-.2z" transform="translate(-.45 -.273)" style="fill:#4d4948"/>
    <path data-name="Path 2" d="M59.55 5.26a9.127 9.127 0 0 1 6.8 3 10.5 10.5 0 0 1 2.9 7.5 10.566 10.566 0 0 1-2.9 7.6 9.413 9.413 0 0 1-7 3 9.238 9.238 0 0 1-7-3 10.576 10.576 0 0 1-2.8-7.7 10.047 10.047 0 0 1 3.3-7.8 9.376 9.376 0 0 1 6.7-2.6zm-.3 1.1a5.213 5.213 0 0 0-4.3 2c-1.4 1.7-2 4.1-2 7.3s.7 5.8 2.1 7.6a5.341 5.341 0 0 0 4.3 2 5.733 5.733 0 0 0 4.7-2.2c1.2-1.5 1.9-3.8 1.9-7 0-3.5-.7-6-2-7.7a6.334 6.334 0 0 0-4.7-2zm19.8 10.1v5.9c0 1.3.1 2.1.4 2.4a2.228 2.228 0 0 0 1.7.7h.8v.6h-8.7v-.6h.8a2.005 2.005 0 0 0 1.8-.8 4.847 4.847 0 0 0 .3-2.2v-13c0-1.3-.1-2.1-.4-2.4a2.4 2.4 0 0 0-1.7-.7h-.8v-.6h7.4a12.54 12.54 0 0 1 4.3.6 6.068 6.068 0 0 1 2.6 1.9 4.933 4.933 0 0 1 1.1 3.1 5.192 5.192 0 0 1-1.6 4 6.512 6.512 0 0 1-4.6 1.5 9.488 9.488 0 0 1-1.6-.1 5.527 5.527 0 0 1-1.8-.3zm0-.8a7.383 7.383 0 0 0 1.4.2c.4 0 .8.1 1 .1a3.743 3.743 0 0 0 2.7-1.2 4.507 4.507 0 0 0 1.1-3.1 6 6 0 0 0-.5-2.4 5 5 0 0 0-1.5-1.7 4.282 4.282 0 0 0-2.2-.6 8.411 8.411 0 0 0-2 .3zm19.4-8.8v8h4.4a3.858 3.858 0 0 0 2.3-.5 3.774 3.774 0 0 0 .9-2.4h.6v7h-.6a8.244 8.244 0 0 0-.4-1.9 2.385 2.385 0 0 0-.9-.8 4.39 4.39 0 0 0-1.9-.3h-4.4v6.6a5.374 5.374 0 0 0 .1 1.6 1.765 1.765 0 0 0 .4.5 2.753 2.753 0 0 0 1.1.2h3.4a13.976 13.976 0 0 0 2.5-.2 6.163 6.163 0 0 0 1.5-.9 12.129 12.129 0 0 0 1.9-2.8h.6l-1.7 5.1h-15.5v-.6h.7a3.556 3.556 0 0 0 1.4-.3 1.328 1.328 0 0 0 .6-.7 7.47 7.47 0 0 0 .2-2V9.26c0-1.3-.1-2.1-.4-2.4a2.452 2.452 0 0 0-1.8-.6h-.7v-.5h15.6l.2 4.4h-.6a5.732 5.732 0 0 0-.7-2.2 2.422 2.422 0 0 0-1.1-.9 9.233 9.233 0 0 0-2.1-.2zm14.3-1.1h5.5l12.3 15.1V9.26a3.825 3.825 0 0 0-.4-2.3 2.21 2.21 0 0 0-1.7-.6h-.7v-.6h7v.6h-.7a2.005 2.005 0 0 0-1.8.8 4.847 4.847 0 0 0-.3 2.2v17h-.5l-13.3-16.3v12.4a3.825 3.825 0 0 0 .4 2.3 2.358 2.358 0 0 0 1.7.6h.7v.6h-7v-.6h.7a2.005 2.005 0 0 0 1.8-.8 4.847 4.847 0 0 0 .3-2.2v-14c-.6-.7-1-1.1-1.3-1.4a5.121 5.121 0 0 0-1.3-.6 4.371 4.371 0 0 0-1.3-.1v-.5h-.1z" transform="translate(-.45 -.273)" style="fill:#27156f"/>
    <path data-name="Path 3" d="M151.55 5.26v7h-.6a8.6 8.6 0 0 0-1-3.2 5.287 5.287 0 0 0-2-1.9 5.173 5.173 0 0 0-2.6-.7 3.959 3.959 0 0 0-2.6.9 2.832 2.832 0 0 0-.4 3.9 19.134 19.134 0 0 0 4.4 3 36.263 36.263 0 0 1 3.9 2.3 5.865 5.865 0 0 1 1.6 1.9 4.618 4.618 0 0 1 .6 2.3 5.5 5.5 0 0 1-1.8 4 6.54 6.54 0 0 1-4.6 1.7 9.645 9.645 0 0 1-1.7-.1c-.3-.1-.9-.2-1.9-.5a14.128 14.128 0 0 0-1.8-.5 1.423 1.423 0 0 0-.6.2 1.543 1.543 0 0 0-.3.9h-.6v-6.9h.6a14.62 14.62 0 0 0 1 3.3 5.033 5.033 0 0 0 2 1.8 6.028 6.028 0 0 0 3 .7 3.969 3.969 0 0 0 2.9-1 3.18 3.18 0 0 0 1.1-2.3 2.814 2.814 0 0 0-.4-1.5 4.25 4.25 0 0 0-1.3-1.4 35.45 35.45 0 0 0-3.2-1.9 32.123 32.123 0 0 1-3.7-2.3 7.343 7.343 0 0 1-1.7-1.9 4.618 4.618 0 0 1-.6-2.3 5 5 0 0 1 1.7-3.7 6.091 6.091 0 0 1 4.2-1.6 8.866 8.866 0 0 1 3.4.8 5.64 5.64 0 0 0 1.2.4.873.873 0 0 0 .6-.2 1.884 1.884 0 0 0 .4-.9h.8zm11.6 11.2v5.9c0 1.3.1 2.1.4 2.4a2.228 2.228 0 0 0 1.7.7h.8v.6h-8.7v-.6h.8a2.005 2.005 0 0 0 1.8-.8 4.847 4.847 0 0 0 .3-2.2v-13c0-1.3-.1-2.1-.4-2.4a2.4 2.4 0 0 0-1.7-.7h-.8v-.6h7.4a12.54 12.54 0 0 1 4.3.6 6.068 6.068 0 0 1 2.6 1.9 4.933 4.933 0 0 1 1.1 3.1 5.192 5.192 0 0 1-1.6 4 6.512 6.512 0 0 1-4.6 1.5 9.488 9.488 0 0 1-1.6-.1 5.527 5.527 0 0 1-1.8-.3zm0-.8a7.383 7.383 0 0 0 1.4.2c.4 0 .8.1 1 .1a3.743 3.743 0 0 0 2.7-1.2 4.507 4.507 0 0 0 1.1-3.1 6 6 0 0 0-.5-2.4 5 5 0 0 0-1.5-1.7 4.282 4.282 0 0 0-2.2-.6 8.411 8.411 0 0 0-2 .3zm24.2 3.5h-7.8l-1.4 3.2a5.959 5.959 0 0 0-.5 1.8.911.911 0 0 0 .4.8 4.37 4.37 0 0 0 1.9.5v.6h-6.4v-.6a2.408 2.408 0 0 0 1.6-.6 8.661 8.661 0 0 0 1.7-2.9l7.1-16.6h.5l7 16.8a10.536 10.536 0 0 0 1.5 2.6 3.611 3.611 0 0 0 1.9.7v.6h-8v-.6a2.811 2.811 0 0 0 1.6-.4.911.911 0 0 0 .4-.8 6.933 6.933 0 0 0-.6-2.1zm-.4-1.1-3.4-8.2-3.5 8.2zm26.6-12.8.5 6.9h-.5a8.427 8.427 0 0 0-2.6-4.4 6.821 6.821 0 0 0-7.7-.4 7.4 7.4 0 0 0-2.6 3.3 14.828 14.828 0 0 0-.9 5.6 11.313 11.313 0 0 0 .9 4.7 7.259 7.259 0 0 0 2.6 3.1 7.929 7.929 0 0 0 7.5.3 12.94 12.94 0 0 0 3.3-3.3l.5.3a10.346 10.346 0 0 1-3.5 3.9 9.873 9.873 0 0 1-12.6-2.4 10.307 10.307 0 0 1-2.1-6.5 11.89 11.89 0 0 1 1.4-5.6 9.278 9.278 0 0 1 3.7-3.9 10.318 10.318 0 0 1 5.2-1.4 9.5 9.5 0 0 1 4.3 1.1 2.4 2.4 0 0 0 .9.3.889.889 0 0 0 .7-.3 2.886 2.886 0 0 0 .6-1.1h.4zm9.8 1.6v8h4.4a3.858 3.858 0 0 0 2.3-.5 3.774 3.774 0 0 0 .9-2.4h.6v7h-.6a8.244 8.244 0 0 0-.4-1.9 2.385 2.385 0 0 0-.9-.8 4.39 4.39 0 0 0-1.9-.3h-4.4v6.6a5.374 5.374 0 0 0 .1 1.6 1.765 1.765 0 0 0 .4.5 2.753 2.753 0 0 0 1.1.2h3.4a13.976 13.976 0 0 0 2.5-.2 6.163 6.163 0 0 0 1.5-.9 12.129 12.129 0 0 0 1.9-2.8h.6l-1.7 5.1h-15.6v-.6h.7a3.556 3.556 0 0 0 1.4-.3 1.328 1.328 0 0 0 .6-.7 7.47 7.47 0 0 0 .2-2V9.26c0-1.3-.1-2.1-.4-2.4a2.452 2.452 0 0 0-1.8-.6h-.7v-.5h15.6l.2 4.4h-.6a5.732 5.732 0 0 0-.7-2.2 2.422 2.422 0 0 0-1.1-.9 9.233 9.233 0 0 0-2.1-.2z" transform="translate(-.45 -.273)" style="fill:#db241c"/>
    <path data-name="Path 4" d="M12.75 7.26c1.5-1.6 2.4-3.5 1.5-4.2s-2.6 0-4.1 1.6-2.5 3.3-1.5 4.2 2.6 0 4.1-1.6zm22.4-6.1c-4.2-2.5-12.7.2-20.5 9.2-.3.4-.7.8-1 1.2a20.334 20.334 0 0 1 2.3-.7l.9-1.2c6.8-7.9 14.2-10.2 17.9-8s5.9 9.9 3.5 20c-.2.7-.4 1.4-.6 2s-.5 1.2-.8 1.9c-.6 1.2-1.3 2.4-2 3.6a21.088 21.088 0 0 1-5.4 5.7c-4.1 3-8.8 4.1-12.8 1.9s-5.6-6.9-5.5-12.1a23.7 23.7 0 0 1 1.6-7.8l.3-.6c-.8.3-1.6.5-2.5.8-.2.5-.4 1-.6 1.4a26.731 26.731 0 0 0-1.9 9c-.1 6 1.8 11.3 6.4 13.9s9.9 1.3 14.7-2.2a30.107 30.107 0 0 0 6.3-6.5 33.6 33.6 0 0 0 2.3-4.1c.3-.7.6-1.4.9-2.2s.5-1.5.8-2.3c2.6-11.5 0-20.4-4.3-22.9z" transform="translate(-.45 -.273)" style="fill:#28156f"/>
    <path data-name="Path 5" d="M.45 20.66s9-8.8 16.5-8.8 7.2 5.8 6 8c-1.3 2.4-5.3 5.5-5.3 5.5a27.223 27.223 0 0 0 3.2-5.2c1-2.7.3-5.7-4.9-5.4-6 .4-15.5 5.9-15.5 5.9z" transform="translate(-.45 -.273)" style="fill-rule:evenodd;fill:#db241c"/>
</svg>
